Coordinates
version=1
nRows=9
nColumns=42
inDegrees=yes

Units are S.I. units (second, meters, Newtons, ...)
If the header above contains a line with 'inDegrees', this indicates whether rotational values are in degrees (yes) or radians (no).

endheader
time	pelvis_tilt	pelvis_list	pelvis_rotation	pelvis_tx	pelvis_ty	pelvis_tz	hip_flexion_r	hip_adduction_r	hip_rotation_r	knee_angle_r	knee_adduction_r	knee_angle_r_beta	ankle_angle_r	subtalar_angle_r	mtp_angle_r	hip_flexion_l	hip_adduction_l	hip_rotation_l	knee_angle_l	knee_adduction_l	knee_angle_l_beta	ankle_angle_l	subtalar_angle_l	mtp_angle_l	lumbar_extension	lumbar_bending	lumbar_rotation	arm_flex_r	arm_add_r	arm_rot_r	elbow_flex_r	pro_sup_r	wrist_flex_r	wrist_dev_r	arm_flex_l	arm_add_l	arm_rot_l	elbow_flex_l	pro_sup_l	wrist_flex_l	wrist_dev_l
      1.68000000	     14.58547341	     -4.91802604	     -0.62297857	     -1.05450250	      0.90058184	      0.03551031	    -28.82246366	      2.05228331	    -17.43165599	     14.74120415	      6.47516472	      0.25728255	     16.75337990	     37.35059782	     -7.56010247	     15.58122576	     -6.65148177	    -12.41040181	     26.94223182	     -8.06169252	      0.47023065	     16.37417587	     15.16129547	     -7.56010247	    -32.19215293	     -0.41497570	      0.25959602	     13.21323650	    -29.75333179	      4.58057724	     82.05186668	     90.00000001	      0.00000000	      0.00000000	     -4.36954550	     -6.43269030	    -17.15900603	     33.68902369	     90.00000001	      0.00000000	      0.00000000
      1.69000000	     14.42037070	     -4.83805709	     -0.72299831	     -1.04519051	      0.89994807	      0.03412336	    -29.08473922	      1.77255358	    -17.08723252	     15.03097595	      6.27553540	      0.26234002	     16.60858823	     37.40596268	     -7.55991757	     15.42413534	     -6.31377687	    -12.04421333	     27.58995484	     -8.16800677	      0.48153555	     16.23786278	     15.32863825	     -7.55991757	    -31.96177262	     -0.49530435	      0.20405544	     13.13484850	    -29.70024497	      4.49251699	     82.33887269	     90.00000001	      0.00000000	      0.00000000	     -4.35626688	     -6.54158865	    -17.20126991	     33.72812376	     90.00000001	      0.00000000	      0.00000000
      1.70000000	     14.06503006	     -4.77010450	     -0.66548088	     -1.03563868	      0.89877592	      0.03217242	    -29.16081063	      1.40801972	    -17.13986094	     15.47493789	      6.40425611	      0.27008862	     16.33434016	     37.42848970	     -7.55914154	     15.77929275	     -5.96330695	    -11.83912366	     28.79643164	     -8.42007745	      0.50259254	     16.13773632	     15.51984107	     -7.55914154	    -31.52671104	     -0.43210080	      0.14109197	     12.63441536	    -29.66900055	      3.98854833	     83.02978025	     90.00000001	      0.00000000	      0.00000000	     -4.34955051	     -6.54385522	    -17.25845875	     33.84356743	     90.00000001	      0.00000000	      0.00000000
      1.71000000	     13.76323927	     -4.68917609	     -0.66501571	     -1.02613574	      0.89795496	      0.03040279	    -29.25363636	      1.09326203	    -17.08899293	     15.89842631	      6.33276979	      0.27747988	     16.03159903	     37.51675717	     -7.55843893	     16.00098151	     -5.61748029	    -11.40837720	     29.86655696	     -8.55459129	      0.52126976	     15.96941229	     15.80190441	     -7.55843893	    -31.17086721	     -0.44058149	      0.11646304	     12.21213580	    -29.57204533	      3.61029892	     83.40702902	     90.00000001	      0.00000000	      0.00000000	     -4.25951907	     -6.62109054	    -17.26981956	     33.91263628	     90.00000001	      0.00000000	      0.00000000
      1.72000000	     13.49871503	     -4.55891946	     -0.70044403	     -1.01657104	      0.89735630	      0.02856985	    -29.35953492	      0.71045659	    -16.98076030	     16.35505692	      6.25798479	      0.28544959	     15.69099088	     37.57119515	     -7.55801894	     16.14617368	     -5.24112924	    -10.86647153	     30.89906086	     -8.56238541	      0.53929035	     15.71613165	     16.00211237	     -7.55801894	    -30.87021815	     -0.50482338	      0.09153919	     11.79007630	    -29.44272107	      3.31609373	     83.62548542	     90.00000001	      0.00000000	      0.00000000	     -4.13766702	     -6.68335755	    -17.27264229	     33.98158627	     90.00000001	      0.00000000	      0.00000000
      1.73000000	     13.28790366	     -4.46815081	     -0.85082010	     -1.00676662	      0.89715403	      0.02702399	    -29.49679540	      0.44640266	    -16.67440646	     16.73021814	      5.91591664	      0.29199739	     15.45426300	     37.61520319	     -7.55790812	     16.05530898	     -4.88012310	    -10.33813976	     31.57216297	     -8.69804396	      0.55103820	     15.53153193	     16.14492758	     -7.55790812	    -30.60952490	     -0.59660143	      0.13659318	     11.34320245	    -29.24898964	      3.30772609	     83.59368106	     90.00000001	      0.00000000	      0.00000000	     -4.05929392	     -6.72114551	    -17.28027897	     34.02141673	     90.00000001	      0.00000000	      0.00000000
      1.74000000	     12.97835317	     -4.16156330	     -0.60227197	     -0.99733261	      0.89659703	      0.02429411	    -29.40795514	     -0.14080991	    -17.49901116	     17.63792212	      5.92248667	      0.30783981	     14.36992908	     37.81238950	     -7.55462408	     16.34505850	     -4.21886132	     -8.83237906	     32.85422550	     -8.20972647	      0.57341441	     14.91126062	     14.25349444	     -7.55462408	    -30.33954823	     -0.67234161	     -0.00381903	     10.55811096	    -28.97582221	      2.34422903	     83.94382572	     90.00000001	      0.00000000	      0.00000000	     -3.70222063	     -6.85497660	    -16.91256255	     34.03766076	     90.00000001	      0.00000000	      0.00000000
      1.75000000	     12.81600839	     -4.05141390	     -0.69170220	     -0.98738193	      0.89672115	      0.02257848	    -29.53165447	     -0.38415779	    -17.14428544	     18.08908136	      5.59154541	      0.31571403	     14.09086496	     37.81489615	     -7.55453045	     16.15263692	     -3.92375492	     -8.42179218	     33.42538543	     -8.22502755	      0.58338303	     14.74501159	     14.34143471	     -7.55453045	    -30.15651720	     -0.75560751	     -0.00169202	     10.00827603	    -28.71950553	      2.41731657	     83.76319715	     90.00000001	      0.00000000	      0.00000000	     -3.55717957	     -6.89031017	    -16.92316127	     34.08980406	     90.00000001	      0.00000000	      0.00000000
      1.76000000	     12.69415416	     -3.75662982	     -0.74016215	     -0.97775661	      0.89684995	      0.02047612	    -29.42755710	     -1.09239076	    -17.66354002	     19.38732719	      5.54815830	      0.33837269	     12.68228308	     37.53907128	     -7.55398074	     16.07750508	     -3.58642376	     -7.91042567	     34.47853732	     -7.71430817	      0.60176400	     14.40948935	     13.62085184	     -7.55398074	    -30.09136791	     -0.98076144	      0.04744167	      9.35352485	    -28.35566904	      1.72456858	     83.61619070	     90.00000001	      0.00000000	      0.00000000	     -3.14444779	     -6.97530286	    -16.88763375	     34.08368904	     90.00000001	      0.00000000	      0.00000000
